# xmcd
#
# Track frame offsets:
#	150
#	20000
#	41428
#	58838
#	73949
#	95480
#	108401
#	135214
#	152882
#	165858
#	178536
#	209442
#	227912
#	243361
#	258600
#	275931
#	287840
#	299941
#	314206
#	324184
#	336200
#	352788
#
# Disc length: 4743 seconds
#
# Revision: 0
# Processed by: cddbd v1.5.2PL0 Copyright (c) Steve Scherf et al.
# Submitted via: EZCDAudioConverter 8.5.0.1
#
DISCID=5b128516
DTITLE=Across The Great Divide 3/3
DYEAR=1900
DGENRE=
TTITLE0=Carolanne Pegg - Open The Door
TTITLE1=Rod Stewart - Country Comfort
TTITLE2=Northwind - Home For Frozen Roses
TTITLE3=Bridget St. John - Nice
TTITLE4=The Pretty Things - Country Road
TTITLE5=Andy Roberts - Home Grown
TTITLE6=Edwards Hand - Sheriff Myras Lincoln
TTITLE7=Marian Segal - Circle Round The Sun
TTITLE8=The Parlour Band - Pretty Haired Girl
TTITLE9=The Tremeloes - Hello Buddy
TTITLE10=Greasy Bear - Tallawaya
TTITLE11=Man - My Name Is Jesus Smith
TTITLE12=Keith Christmas - Metropolis
TTITLE13=Deep Feeling - Country Heir [Single Edit]
TTITLE14=Prelude - Johnson Boy
TTITLE15=Paul Brett's Sage - Cottage Made For Two
TTITLE16=Dave Cousins and Dave Lambert - See How They Run
TTITLE17=Mother Nature - Clear Blue Sky
TTITLE18=Idle Race - Dancing Flower
TTITLE19=The Illusions - Wheel Of Fortune
TTITLE20=Gordon, Ellis and Steel - My Little One
TTITLE21=Plainsong - I'll Fly Away [Demo]
EXTD=
EXTT0=
EXTT1=
EXTT2=
EXTT3=
EXTT4=
EXTT5=
EXTT6=
EXTT7=
EXTT8=
EXTT9=
EXTT10=
EXTT11=
EXTT12=
EXTT13=
EXTT14=
EXTT15=
EXTT16=
EXTT17=
EXTT18=
EXTT19=
EXTT20=
EXTT21=
PLAYORDER=
